<svg xmlns="http://www.w3.org/2000/svg" width="48" height="49" fill="none" viewBox="0 0 48 49"><g clip-path="url(#clip0_135_124)"><path fill="#1E1E1E" fill-opacity=".85" d="M6 6.6001C4.4087 6.6001 2.88258 7.23224 1.75736 8.35746C0.632141 9.48267 0 11.0088 0 12.6001L0 15.6001C0 17.1914 0.632141 18.7175 1.75736 19.8427C2.88258 20.968 4.4087 21.6001 6 21.6001H22.5V30.6001C21.3065 30.6001 20.1619 31.0742 19.318 31.9181C18.4741 32.762 18 33.9066 18 35.1001H1.5C1.10218 35.1001 0.720644 35.2581 0.43934 35.5394C0.158035 35.8207 0 36.2023 0 36.6001C0 36.9979 0.158035 37.3795 0.43934 37.6608C0.720644 37.9421 1.10218 38.1001 1.5 38.1001H18C18 39.2936 18.4741 40.4382 19.318 41.2821C20.1619 42.126 21.3065 42.6001 22.5 42.6001H25.5C26.6935 42.6001 27.8381 42.126 28.682 41.2821C29.5259 40.4382 30 39.2936 30 38.1001H46.5C46.8978 38.1001 47.2794 37.9421 47.5607 37.6608C47.842 37.3795 48 36.9979 48 36.6001C48 36.2023 47.842 35.8207 47.5607 35.5394C47.2794 35.2581 46.8978 35.1001 46.5 35.1001H30C30 33.9066 29.5259 32.762 28.682 31.9181C27.8381 31.0742 26.6935 30.6001 25.5 30.6001V21.6001H42C43.5913 21.6001 45.1174 20.968 46.2426 19.8427C47.3679 18.7175 48 17.1914 48 15.6001V12.6001C48 11.0088 47.3679 9.48267 46.2426 8.35746C45.1174 7.23224 43.5913 6.6001 42 6.6001H6ZM7.5 15.6001C7.10218 15.6001 6.72064 15.4421 6.43934 15.1608C6.15804 14.8795 6 14.4979 6 14.1001C6 13.7023 6.15804 13.3207 6.43934 13.0394C6.72064 12.7581 7.10218 12.6001 7.5 12.6001C7.89782 12.6001 8.27936 12.7581 8.56066 13.0394C8.84196 13.3207 9 13.7023 9 14.1001C9 14.4979 8.84196 14.8795 8.56066 15.1608C8.27936 15.4421 7.89782 15.6001 7.5 15.6001ZM13.5 15.6001C13.1022 15.6001 12.7206 15.4421 12.4393 15.1608C12.158 14.8795 12 14.4979 12 14.1001C12 13.7023 12.158 13.3207 12.4393 13.0394C12.7206 12.7581 13.1022 12.6001 13.5 12.6001C13.8978 12.6001 14.2794 12.7581 14.5607 13.0394C14.842 13.3207 15 13.7023 15 14.1001C15 14.4979 14.842 14.8795 14.5607 15.1608C14.2794 15.4421 13.8978 15.6001 13.5 15.6001Z"/></g><defs><clipPath id="clip0_135_124"><rect width="48" height="48" fill="#fff" transform="translate(0 0.600098)"/></clipPath></defs></svg>