<svg width="64" height="64" viewBox="0 0 64 64" fill="none" xmlns="http://www.w3.org/2000/svg">
<g clip-path="url(#clip0_256_27)">
<path d="M51.596 20C50.6693 15.4624 48.1966 11.3871 44.5998 8.46961C41.0031 5.55209 36.5053 3.97324 31.8742 4.00251C27.243 4.03177 22.7655 5.66736 19.206 8.6301C15.6464 11.5928 13.2253 15.6991 12.356 20.248C8.66477 20.905 5.35366 22.9213 3.07568 25.8992C0.797699 28.8771 -0.28179 32.6005 0.0500934 36.3351C0.381977 40.0697 2.10114 43.5443 4.86856 46.0739C7.63597 48.6034 11.2508 50.0042 15 50H16V46H15C12.1452 46.0074 9.39938 44.9038 7.34374 42.9227C5.28811 40.9416 4.08389 38.2385 3.98593 35.3852C3.88796 32.532 4.90393 29.7526 6.81884 27.6352C8.73376 25.5178 11.3974 24.2284 14.246 24.04L15.92 23.926L16.1 22.26C16.5051 18.5397 18.2026 15.0794 20.8967 12.482C23.5908 9.88459 27.1108 8.31469 30.8435 8.04579C34.5761 7.7769 38.2848 8.82606 41.3234 11.0105C44.362 13.1949 46.5379 16.3762 47.472 20H51.596Z" fill="#3F3F3F"/>
<path d="M56 24H36C34.9395 24.0011 33.9227 24.4228 33.1727 25.1727C32.4228 25.9227 32.0011 26.9395 32 28V36H24C22.9395 36.0011 21.9227 36.4228 21.1727 37.1727C20.4228 37.9227 20.0011 38.9395 20 40V60H60V28C59.9989 26.9395 59.5772 25.9227 58.8273 25.1727C58.0773 24.4228 57.0605 24.0011 56 24ZM24 56V40H32V56H24ZM56 56H36V28H56V56Z" fill="#3F3F3F"/>
<path d="M40 32H44V40H40V32ZM48 32H52V40H48V32ZM40 44H44V52H40V44ZM48 44H52V52H48V44Z" fill="#3F3F3F"/>
</g>
<defs>
<clipPath id="clip0_256_27">
<rect width="64" height="64" fill="white"/>
</clipPath>
</defs>
</svg>
