<svg width="64" height="64" viewBox="0 0 64 64" fill="none" xmlns="http://www.w3.org/2000/svg">
<path d="M22 28H42V36H22V28Z" fill="#3F3F3F"/>
<path d="M58.782 29.054L34.946 5.21801C34.5593 4.83109 34.1 4.52432 33.5944 4.31531C33.0889 4.1063 32.547 3.99915 32 4.00001C30.934 4.00001 29.866 4.40601 29.054 5.21801L5.218 29.054C4.406 29.866 4 30.932 4 32C4 33.068 4.406 34.134 5.218 34.946L29.052 58.78C29.866 59.594 30.934 60 32 60C33.066 60 34.134 59.594 34.946 58.782L58.78 34.948C59.594 34.134 60 33.068 60 32C60 30.932 59.594 29.866 58.782 29.054ZM32 56.072L7.93 32L32 7.928L56.072 32L32 56.072Z" fill="#3F3F3F"/>
</svg>
