<svg width="64" height="64" viewBox="0 0 64 64" fill="none" xmlns="http://www.w3.org/2000/svg">
<path d="M42 56C44.2091 56 46 54.2091 46 52C46 49.7909 44.2091 48 42 48C39.7909 48 38 49.7909 38 52C38 54.2091 39.7909 56 42 56Z" fill="#3F3F3F"/>
<path d="M42 16C44.2091 16 46 14.2091 46 12C46 9.79086 44.2091 8 42 8C39.7909 8 38 9.79086 38 12C38 14.2091 39.7909 16 42 16Z" fill="#3F3F3F"/>
<path d="M8 36C10.2091 36 12 34.2091 12 32C12 29.7909 10.2091 28 8 28C5.79086 28 4 29.7909 4 32C4 34.2091 5.79086 36 8 36Z" fill="#3F3F3F"/>
<path d="M56 24C54.2312 24.0053 52.5142 24.5972 51.1178 25.6829C49.7215 26.7687 48.7249 28.287 48.284 30H39.716C39.4327 28.8721 38.905 27.8203 38.17 26.9191C37.435 26.0178 36.5109 25.2892 35.4631 24.7849C34.4152 24.2805 33.2693 24.0127 32.1064 24.0005C30.9436 23.9882 29.7922 24.2318 28.734 24.714L22.38 16.774C23.4252 15.4014 23.994 13.7252 24 12C24 10.4178 23.5308 8.87103 22.6518 7.55544C21.7727 6.23985 20.5233 5.21447 19.0615 4.60897C17.5997 4.00347 15.9911 3.84504 14.4393 4.15372C12.8874 4.4624 11.462 5.22433 10.3431 6.34315C9.22433 7.46197 8.4624 8.88743 8.15372 10.4393C7.84504 11.9911 8.00347 13.5997 8.60897 15.0615C9.21447 16.5233 10.2398 17.7727 11.5554 18.6518C12.871 19.5308 14.4178 20 16 20C17.1277 19.9974 18.2419 19.754 19.268 19.286L25.62 27.226C24.57 28.596 24.001 30.2739 24.001 32C24.001 33.7261 24.57 35.404 25.62 36.774L19.268 44.714C18.2419 44.246 17.1277 44.0026 16 44C14.4178 44 12.871 44.4692 11.5554 45.3482C10.2398 46.2273 9.21447 47.4767 8.60897 48.9385C8.00347 50.4003 7.84504 52.0089 8.15372 53.5607C8.4624 55.1126 9.22433 56.538 10.3431 57.6569C11.462 58.7757 12.8874 59.5376 14.4393 59.8463C15.9911 60.155 17.5997 59.9965 19.0615 59.391C20.5233 58.7855 21.7727 57.7602 22.6518 56.4446C23.5308 55.129 24 53.5823 24 52C23.9941 50.2747 23.4253 48.5985 22.38 47.226L28.732 39.286C29.7903 39.7686 30.9419 40.0124 32.1049 40.0004C33.268 39.9883 34.4142 39.7206 35.4623 39.2162C36.5104 38.7118 37.4348 37.9831 38.1699 37.0817C38.905 36.1802 39.4328 35.1282 39.716 34H48.284C48.6606 35.4451 49.4349 36.7557 50.5189 37.7829C51.6029 38.81 52.9533 39.5127 54.4165 39.811C55.8798 40.1094 57.3974 39.9914 58.7971 39.4706C60.1967 38.9497 61.4222 38.0469 62.3345 36.8646C63.2468 35.6822 63.8093 34.2678 63.9581 32.7818C64.1069 31.2958 63.8361 29.7979 63.1764 28.4582C62.5167 27.1184 61.4946 25.9904 60.226 25.2024C58.9575 24.4143 57.4934 23.9978 56 24ZM12 12C12 11.2089 12.2346 10.4355 12.6741 9.77772C13.1137 9.11993 13.7384 8.60724 14.4693 8.30448C15.2002 8.00173 16.0044 7.92252 16.7804 8.07686C17.5563 8.2312 18.269 8.61217 18.8284 9.17158C19.3878 9.73099 19.7688 10.4437 19.9231 11.2196C20.0775 11.9956 19.9983 12.7998 19.6955 13.5307C19.3928 14.2616 18.8801 14.8864 18.2223 15.3259C17.5645 15.7654 16.7911 16 16 16C14.9395 15.9989 13.9227 15.5772 13.1727 14.8273C12.4228 14.0773 12.0011 13.0605 12 12ZM16 56C15.2089 56 14.4355 55.7654 13.7777 55.3259C13.1199 54.8864 12.6072 54.2616 12.3045 53.5307C12.0017 52.7998 11.9225 51.9956 12.0769 51.2196C12.2312 50.4437 12.6122 49.731 13.1716 49.1716C13.731 48.6122 14.4437 48.2312 15.2196 48.0769C15.9956 47.9225 16.7998 48.0017 17.5307 48.3045C18.2616 48.6072 18.8864 49.1199 19.3259 49.7777C19.7654 50.4355 20 51.2089 20 52C19.9989 53.0605 19.5772 54.0773 18.8273 54.8273C18.0773 55.5772 17.0605 55.9989 16 56ZM32 36C31.2089 36 30.4355 35.7654 29.7777 35.3259C29.1199 34.8864 28.6072 34.2616 28.3045 33.5307C28.0017 32.7998 27.9225 31.9956 28.0769 31.2196C28.2312 30.4437 28.6122 29.731 29.1716 29.1716C29.731 28.6122 30.4437 28.2312 31.2196 28.0769C31.9956 27.9225 32.7998 28.0017 33.5307 28.3045C34.2616 28.6072 34.8864 29.1199 35.3259 29.7777C35.7654 30.4355 36 31.2089 36 32C35.9989 33.0605 35.5772 34.0773 34.8273 34.8273C34.0773 35.5772 33.0605 35.9989 32 36ZM56 36C55.2089 36 54.4355 35.7654 53.7777 35.3259C53.1199 34.8864 52.6072 34.2616 52.3045 33.5307C52.0017 32.7998 51.9225 31.9956 52.0769 31.2196C52.2312 30.4437 52.6122 29.731 53.1716 29.1716C53.731 28.6122 54.4437 28.2312 55.2196 28.0769C55.9956 27.9225 56.7998 28.0017 57.5307 28.3045C58.2616 28.6072 58.8864 29.1199 59.3259 29.7777C59.7654 30.4355 60 31.2089 60 32C59.9989 33.0605 59.5772 34.0773 58.8273 34.8273C58.0773 35.5772 57.0605 35.9989 56 36Z" fill="#3F3F3F"/>
</svg>
