<svg width="64" height="64" viewBox="0 0 64 64" fill="none" xmlns="http://www.w3.org/2000/svg">
<path d="M64 46L54 56L51.2 53.2L56.4 48H40V44H56.4L51.2 38.8L54 36L64 46Z" fill="#3F3F3F"/>
<path d="M51.0002 5.4C50.2002 4.6 49.2002 4 48.0002 4H42.6002C41.4002 4 40.4002 4.6 40.0002 5.6L38.8002 8H36.0002V7C36.0002 5.4 34.6002 4 33.0002 4H23.0002C21.4002 4 20.0002 5.4 20.0002 7V8H17.2002L16.0002 5.6C15.6002 4.6 14.6002 4 13.4002 4H8.00019C6.80019 4 5.80019 4.6 5.00019 5.4C4.20019 6.4 3.80019 7.6 4.00019 8.8L5.40019 17C6.00019 19.8 8.40019 22 11.4002 22H12.0002V46C8.60019 46 6.00019 48.6 6.00019 52V60H44.0002V56H34.0002V42C34.0002 38.6 31.4002 36 28.0002 36C24.6002 36 22.0002 38.6 22.0002 42V56H10.0002V52C10.0002 50.8 10.8002 50 12.0002 50H16.0002V22H40.0002V36H44.0002V22H44.6002C47.6002 22 50.0002 19.8 50.6002 17L52.0002 8.8C52.2002 7.6 51.8002 6.4 51.0002 5.4ZM26.0002 42C26.0002 40.8 26.8002 40 28.0002 40C29.2002 40 30.0002 40.8 30.0002 42V56H26.0002V42ZM46.6002 16.4C46.4002 17.4 45.6002 18 44.6002 18H11.4002C10.4002 18 9.60019 17.2 9.40019 16.4L8.00019 8H12.8002L14.8002 12H24.0002V8H32.0002V12H41.2002L43.2002 8H48.0002L46.6002 16.4Z" fill="#3F3F3F"/>
</svg>
