<svg xmlns="http://www.w3.org/2000/svg" width="48" height="49" fill="none" viewBox="0 0 48 49"><g id="clarity:router-solid" clip-path="url(#clip0_135_103)"><path id="Vector" fill="#1E1E1E" fill-opacity=".85" d="M24.0001 2.72668C19.7808 2.72668 15.6562 3.97786 12.1479 6.322C8.63968 8.66614 5.90533 11.9979 4.29066 15.8961C2.67599 19.7943 2.25352 24.0837 3.07667 28.2219C3.89982 32.3602 5.93163 36.1614 8.91515 39.145C11.8987 42.1285 15.6999 44.1603 19.8382 44.9834C23.9764 45.8066 28.2658 45.3841 32.164 43.7694C36.0622 42.1548 39.394 39.4204 41.7381 35.9122C44.0822 32.4039 45.3334 28.2794 45.3334 24.06C45.3334 18.4021 43.0858 12.9758 39.085 8.97507C35.0843 4.9743 29.658 2.72668 24.0001 2.72668ZM18.4801 13.7267C18.6801 13.5272 18.951 13.4152 19.2334 13.4152C19.5159 13.4152 19.7868 13.5272 19.9868 13.7267L22.9334 16.6467V8.40668C22.9334 8.12379 23.0458 7.85248 23.2458 7.65244C23.4459 7.4524 23.7172 7.34002 24.0001 7.34002C24.283 7.34002 24.5543 7.4524 24.7543 7.65244C24.9544 7.85248 25.0668 8.12379 25.0668 8.40668V16.6467L28.0001 13.7267C28.0999 13.6278 28.2182 13.5495 28.3483 13.4962C28.4783 13.443 28.6176 13.416 28.7581 13.4166C28.8987 13.4172 29.0377 13.4455 29.1673 13.4999C29.2969 13.5542 29.4145 13.6335 29.5134 13.7334C29.6124 13.8332 29.6907 13.9515 29.7439 14.0815C29.7971 14.2116 29.8241 14.3509 29.8235 14.4914C29.8229 14.6319 29.7946 14.771 29.7403 14.9005C29.6859 15.0301 29.6066 15.1478 29.5068 15.2467L24.0001 20.7L18.4801 15.2334C18.2806 15.0334 18.1686 14.7625 18.1686 14.48C18.1686 14.1976 18.2806 13.9266 18.4801 13.7267ZM13.7601 29.4867C13.5601 29.6862 13.2892 29.7982 13.0068 29.7982C12.7243 29.7982 12.4534 29.6862 12.2534 29.4867L6.66676 24.06L12.2534 18.6067C12.3514 18.5006 12.47 18.4155 12.6018 18.3566C12.7337 18.2977 12.8761 18.2662 13.0205 18.264C13.1649 18.2617 13.3083 18.2889 13.4419 18.3437C13.5755 18.3985 13.6966 18.4799 13.7978 18.5829C13.899 18.686 13.9783 18.8085 14.0307 18.943C14.0832 19.0776 14.1078 19.2214 14.103 19.3658C14.0982 19.5101 14.0642 19.652 14.003 19.7828C13.9417 19.9136 13.8546 20.0306 13.7468 20.1267L10.8134 22.98H19.1734C19.4563 22.98 19.7276 23.0924 19.9277 23.2924C20.1277 23.4925 20.2401 23.7638 20.2401 24.0467C20.2401 24.3296 20.1277 24.6009 19.9277 24.8009C19.7276 25.001 19.4563 25.1133 19.1734 25.1133H10.8134L13.7468 27.98C13.948 28.1782 14.0624 28.4481 14.0649 28.7306C14.0674 29.013 13.9578 29.285 13.7601 29.4867ZM29.5201 34.38C29.3201 34.5795 29.0492 34.6915 28.7668 34.6915C28.4843 34.6915 28.2134 34.5795 28.0134 34.38L25.0668 31.4733V39.7C25.0668 39.9829 24.9544 40.2542 24.7543 40.4543C24.5543 40.6543 24.283 40.7667 24.0001 40.7667C23.7172 40.7667 23.4459 40.6543 23.2458 40.4543C23.0458 40.2542 22.9334 39.9829 22.9334 39.7V31.4733L20.0001 34.3933C19.7985 34.5931 19.5258 34.7047 19.242 34.7034C18.9582 34.7022 18.6866 34.5882 18.4868 34.3867C18.287 34.1851 18.1754 33.9124 18.1767 33.6286C18.1779 33.3448 18.2919 33.0731 18.4934 32.8734L24.0001 27.4067L29.5201 32.8734C29.7196 33.0733 29.8316 33.3442 29.8316 33.6267C29.8316 33.9091 29.7196 34.1801 29.5201 34.38ZM35.7468 29.5C35.6488 29.6061 35.5302 29.6912 35.3984 29.7501C35.2665 29.809 35.1241 29.8405 34.9796 29.8427C34.8352 29.845 34.6919 29.8178 34.5583 29.763C34.4247 29.7082 34.3036 29.6268 34.2024 29.5237C34.1011 29.4207 34.0219 29.2982 33.9694 29.1637C33.917 29.0291 33.8924 28.8853 33.8972 28.7409C33.9019 28.5966 33.936 28.4547 33.9972 28.3239C34.0585 28.1931 34.1456 28.0761 34.2534 27.98L37.1868 25.1133H28.8401C28.5572 25.1133 28.2859 25.001 28.0858 24.8009C27.8858 24.6009 27.7734 24.3296 27.7734 24.0467C27.7734 23.7638 27.8858 23.4925 28.0858 23.2924C28.2859 23.0924 28.5572 22.98 28.8401 22.98H37.2001L34.2668 20.1267C34.159 20.0306 34.0718 19.9136 34.0106 19.7828C33.9493 19.652 33.9153 19.5101 33.9105 19.3658C33.9057 19.2214 33.9303 19.0776 33.9828 18.943C34.0352 18.8085 34.1145 18.686 34.2157 18.5829C34.3169 18.4799 34.438 18.3985 34.5716 18.3437C34.7052 18.2889 34.8486 18.2617 34.993 18.264C35.1374 18.2662 35.2798 18.2977 35.4117 18.3566C35.5436 18.4155 35.6621 18.5006 35.7601 18.6067L41.3334 24.06L35.7468 29.5Z"/></g><defs><clipPath id="clip0_135_103"><rect width="48" height="48" fill="#fff" transform="translate(0 0.5)"/></clipPath></defs></svg>