<svg xmlns="http://www.w3.org/2000/svg" width="100" height="101" fill="none" viewBox="0 0 100 101"><path fill="#0074BD" d="M37.2008 77.1562C37.2008 77.1562 33.4765 79.3234 39.8547 80.0547C47.5828 80.9375 51.532 80.8109 60.0461 79.2016C60.0461 79.2016 62.2891 80.6039 65.4156 81.8195C46.3226 89.9992 22.2062 81.3453 37.2008 77.1562ZM34.8664 66.4805C34.8664 66.4805 30.6883 69.5734 37.0719 70.2344C45.3273 71.0867 51.8453 71.1563 63.1297 68.9844C63.1297 68.9844 64.6867 70.5664 67.1391 71.4305C44.0594 78.1805 18.3531 71.9617 34.8664 66.4805Z"/><path fill="#EA2D2E" d="M54.5327 48.368C59.2398 53.786 53.2984 58.6571 53.2984 58.6571C53.2984 58.6571 65.2429 52.4922 59.7585 44.7688C54.6343 37.5696 50.7062 33.9938 71.9734 21.6594C71.9734 21.6602 38.5898 29.9954 54.5327 48.368Z"/><path fill="#0074BD" d="M79.7836 85.054C79.7836 85.054 82.5407 87.3274 76.7461 89.0844C65.729 92.4219 30.8821 93.4282 21.204 89.218C17.7266 87.704 24.25 85.6047 26.3024 85.1618C28.4422 84.6985 29.6641 84.7829 29.6641 84.7829C25.7946 82.0586 4.65395 90.1344 18.9274 92.4508C57.85 98.7602 89.8782 89.6094 79.7836 85.054ZM38.9938 55.4172C38.9938 55.4172 21.2704 59.6274 32.718 61.1579C37.5524 61.8047 47.1852 61.6563 56.1641 60.9032C63.5 60.2868 70.8618 58.9704 70.8618 58.9704C70.8618 58.9704 68.2774 60.079 66.4055 61.3555C48.404 66.0907 13.6368 63.8852 23.6469 59.0446C32.1094 54.9516 38.9938 55.4172 38.9938 55.4172ZM70.7883 73.1883C89.086 63.6829 80.6251 54.5477 74.7196 55.7782C73.2758 56.079 72.6282 56.3407 72.6282 56.3407C72.6282 56.3407 73.1657 55.4977 74.1907 55.1352C85.8727 51.0297 94.8555 67.2469 70.4227 73.6704C70.4227 73.6688 70.7032 73.4149 70.7883 73.1883Z"/><path fill="#EA2D2E" d="M59.7586 1.73975C59.7586 1.73975 69.8899 11.8772 50.1469 27.4608C34.3141 39.9655 46.5368 47.0937 50.1414 55.2413C40.8985 46.903 34.1188 39.5616 38.6664 32.7296C45.3446 22.703 63.8453 17.8397 59.7586 1.73975Z"/><path fill="#0074BD" d="M40.7921 98.9539C58.3515 100.077 85.3233 98.3289 85.9616 90.0195C85.9616 90.0195 84.7343 93.1695 71.4483 95.6688C56.4593 98.4906 37.9687 98.1617 27.0054 96.3516C27.0054 96.3523 29.2515 98.2117 40.7921 98.9539Z"/></svg>