<svg width="64" height="64" viewBox="0 0 64 64" fill="none" xmlns="http://www.w3.org/2000/svg">
<path d="M46.5335 38.8C42.9335 35.2 37.0668 35.2 33.4668 38.8L28.1335 44.1333C25.8668 46.4 22.1335 46.4 19.8668 44.1333C17.6002 41.8667 17.6002 38.1333 19.8668 35.8667L25.8668 29.8667L22.1335 26.1333L16.1335 32.1333C11.7335 36.5333 11.7335 43.6 16.1335 47.8667C20.5335 52.2667 27.6002 52.2667 31.8668 47.8667L37.2002 42.5333C38.8002 41.0667 41.2002 41.0667 42.8002 42.5333C44.2668 44.1333 44.2668 46.5333 42.8002 48.1333L36.0002 54.9333L39.7335 58.6667L46.5335 51.8667C50.1335 48.2667 50.1335 42.4 46.5335 38.8Z" fill="#37474F"/>
<path d="M21.4665 30.5333C17.7332 26.8 17.7332 20.8 21.4665 17.2L30.5332 8.13334C34.2665 4.40001 40.2665 4.40001 43.8665 8.13334C47.5998 11.8667 47.5998 17.8667 43.8665 21.4667L34.7998 30.5333C31.0665 34.2667 25.1998 34.2667 21.4665 30.5333Z" fill="#0277BD"/>
<path d="M37.3333 20C40.2789 20 42.6667 17.6122 42.6667 14.6667C42.6667 11.7212 40.2789 9.33334 37.3333 9.33334C34.3878 9.33334 32 11.7212 32 14.6667C32 17.6122 34.3878 20 37.3333 20Z" fill="#B3E5FC"/>
</svg>
