<svg width="64" height="64" viewBox="0 0 64 64" fill="none" xmlns="http://www.w3.org/2000/svg">
<path d="M6.3999 16C6.3999 14.3026 7.07419 12.6747 8.27442 11.4745C9.47465 10.2743 11.1025 9.59998 12.7999 9.59998H38.3999C40.0973 9.59998 41.7252 10.2743 42.9254 11.4745C44.1256 12.6747 44.7999 14.3026 44.7999 16V18.8608L55.2159 13.0016C55.4592 12.8648 55.734 12.7941 56.013 12.7964C56.2921 12.7987 56.5657 12.8739 56.8067 13.0146C57.0477 13.1553 57.2477 13.3566 57.3868 13.5985C57.526 13.8404 57.5994 14.1145 57.5999 14.3936V36.8C57.5997 37.0795 57.5263 37.3541 57.387 37.5964C57.2477 37.8388 57.0473 38.0404 56.8059 38.1812C56.5644 38.322 56.2902 38.3971 56.0107 38.399C55.7312 38.4009 55.4561 38.3295 55.2127 38.192L44.7999 32.32V35.2C44.7999 36.8974 44.1256 38.5252 42.9254 39.7255C41.7252 40.9257 40.0973 41.6 38.3999 41.6H31.9999V44.8C31.9999 48.1947 30.6513 51.4505 28.2509 53.8509C25.8504 56.2514 22.5947 57.6 19.1999 57.6H11.1999C10.7756 57.6 10.3686 57.4314 10.0685 57.1313C9.76847 56.8313 9.5999 56.4243 9.5999 56V49.6C9.5999 49.1756 9.76847 48.7687 10.0685 48.4686C10.3686 48.1685 10.7756 48 11.1999 48H17.5999C18.8729 48 20.0938 47.4943 20.994 46.5941C21.8942 45.6939 22.3999 44.473 22.3999 43.2V41.6H12.7999C11.1025 41.6 9.47465 40.9257 8.27442 39.7255C7.07419 38.5252 6.3999 36.8974 6.3999 35.2V16ZM25.5999 41.6V43.2C25.5999 45.3217 24.757 47.3565 23.2568 48.8568C21.7565 50.3571 19.7216 51.2 17.5999 51.2H12.7999V54.4H19.1999C21.746 54.4 24.1878 53.3886 25.9881 51.5882C27.7885 49.7879 28.7999 47.3461 28.7999 44.8V41.6H25.5999ZM12.7999 38.4H38.3999C39.2486 38.4 40.0625 38.0628 40.6626 37.4627C41.2628 36.8626 41.5999 36.0487 41.5999 35.2V16C41.5999 15.1513 41.2628 14.3374 40.6626 13.7372C40.0625 13.1371 39.2486 12.8 38.3999 12.8H12.7999C11.9512 12.8 11.1373 13.1371 10.5372 13.7372C9.93704 14.3374 9.5999 15.1513 9.5999 16V35.2C9.5999 36.0487 9.93704 36.8626 10.5372 37.4627C11.1373 38.0628 11.9512 38.4 12.7999 38.4ZM44.8159 22.528V28.6528L54.3999 34.0608V17.1328L44.8159 22.528Z" fill="#3F3F3F"/>
</svg>
