<svg width="64" height="64" viewBox="0 0 64 64" fill="none" xmlns="http://www.w3.org/2000/svg">
<path d="M32 60C16.56 60 4 47.44 4 32C4 16.56 16.56 4 32 4C47.44 4 60 16.56 60 32C60 47.44 47.44 60 32 60ZM32 8C18.76 8 8 18.76 8 32C8 45.24 18.76 56 32 56C45.24 56 56 45.24 56 32C56 18.76 45.24 8 32 8Z" fill="#444444"/>
<path d="M40.0001 42C39.6401 42 39.2801 41.92 38.9601 41.72L28.9601 35.72C28.6639 35.542 28.4195 35.2896 28.2511 34.9879C28.0827 34.6861 27.9961 34.3455 28.0001 34V18C28.0001 16.88 28.8801 16 30.0001 16C31.1201 16 32.0001 16.88 32.0001 18V32.88L41.0401 38.28C41.4125 38.5082 41.7003 38.8516 41.8599 39.2581C42.0195 39.6646 42.0423 40.1121 41.9247 40.5327C41.8071 40.9533 41.5556 41.3241 41.2083 41.5888C40.861 41.8536 40.4368 41.998 40.0001 42Z" fill="#444444"/>
</svg>
