<svg width="64" height="64" viewBox="0 0 64 64" fill="none" xmlns="http://www.w3.org/2000/svg">
<path d="M53.3333 13.3333V10.6667C53.3333 9.2 52.1333 8 50.6667 8H45.3333C43.8667 8 42.6667 9.2 42.6667 10.6667V13.3333H40V24C40 25.4667 41.2 26.6667 42.6667 26.6667H45.3333V45.3333C45.3333 48.2667 42.9333 50.6667 40 50.6667C37.0667 50.6667 34.6667 48.2667 34.6667 45.3333V18.6667C34.6667 12.7733 29.8933 8 24 8C18.1067 8 13.3333 12.7733 13.3333 18.6667V37.3333H10.6667C9.2 37.3333 8 38.5333 8 40V50.6667H10.6667V53.3333C10.6667 54.8 11.8667 56 13.3333 56H18.6667C20.1333 56 21.3333 54.8 21.3333 53.3333V50.6667H24V40C24 38.5333 22.8 37.3333 21.3333 37.3333H18.6667V18.6667C18.6667 15.7333 21.0667 13.3333 24 13.3333C26.9333 13.3333 29.3333 15.7333 29.3333 18.6667V45.3333C29.3333 51.2267 34.1067 56 40 56C45.8933 56 50.6667 51.2267 50.6667 45.3333V26.6667H53.3333C54.8 26.6667 56 25.4667 56 24V13.3333H53.3333Z" fill="#3F3F3F"/>
</svg>
