<svg width="64" height="64" viewBox="0 0 64 64" fill="none" xmlns="http://www.w3.org/2000/svg">
<path d="M25.0667 58.6667H9.6C8.71634 58.6667 8 57.9503 8 57.0667V46.9333C8 46.0497 8.71634 45.3333 9.6 45.3333H25.0667C25.9503 45.3333 26.6667 46.0497 26.6667 46.9333V57.0667C26.6667 57.9503 25.9503 58.6667 25.0667 58.6667Z" stroke="#3F3F3F" stroke-width="1.5"/>
<path d="M39.7332 18.6666H24.2665C23.3828 18.6666 22.6665 17.9503 22.6665 17.0666V6.93329C22.6665 6.04964 23.3828 5.33329 24.2665 5.33329H39.7332C40.6168 5.33329 41.3332 6.04964 41.3332 6.93329V17.0666C41.3332 17.9503 40.6168 18.6666 39.7332 18.6666Z" stroke="#3F3F3F" stroke-width="1.5"/>
<path d="M54.4002 58.6667H38.9335C38.0498 58.6667 37.3335 57.9503 37.3335 57.0667V46.9333C37.3335 46.0497 38.0498 45.3333 38.9335 45.3333H54.4002C55.2838 45.3333 56.0002 46.0497 56.0002 46.9333V57.0667C56.0002 57.9503 55.2838 58.6667 54.4002 58.6667Z" stroke="#3F3F3F" stroke-width="1.5"/>
<path d="M17.3335 45.3333V36C17.3335 34.5855 17.8954 33.2289 18.8956 32.2287C19.8958 31.2285 21.2523 30.6666 22.6668 30.6666H41.3335C42.748 30.6666 44.1045 31.2285 45.1047 32.2287C46.1049 33.2289 46.6668 34.5855 46.6668 36V45.3333M32.0002 30.6666V18.6666" stroke="#3F3F3F" stroke-width="1.5"/>
</svg>
