<svg width="64" height="64" viewBox="0 0 64 64" fill="none" xmlns="http://www.w3.org/2000/svg">
<path d="M43.3311 38.0375C40.2192 35.2713 36.2003 33.7433 32.0367 33.7433C27.8731 33.7433 23.8542 35.2713 20.7423 38.0375C20.4794 38.265 20.2642 38.5425 20.1094 38.8539C19.9546 39.1653 19.8632 39.5043 19.8406 39.8513C19.8179 40.1983 19.8644 40.5463 19.9773 40.8752C20.0903 41.2041 20.2674 41.5072 20.4985 41.7671C20.7296 42.0269 21.01 42.2382 21.3235 42.3888C21.6369 42.5393 21.9772 42.6261 22.3245 42.644C22.6717 42.662 23.0191 42.6107 23.3464 42.4933C23.6737 42.3759 23.9744 42.1946 24.2311 41.96C26.3818 40.0485 29.1592 38.9926 32.0367 38.9926C34.9141 38.9926 37.6915 40.0485 39.8423 41.96C40.3628 42.4226 41.0458 42.6596 41.7409 42.6187C42.4361 42.5777 43.0865 42.2624 43.5492 41.7419C44.0118 41.2214 44.2488 40.5384 44.2078 39.8433C44.1669 39.1481 43.8515 38.4976 43.3311 38.035V38.0375Z" fill="#3F3F3F"/>
<path d="M32.0351 22.9625C24.9873 22.9528 18.2011 25.6315 13.0601 30.4525C12.7998 30.6856 12.5887 30.9684 12.4391 31.2843C12.2895 31.6001 12.2045 31.9426 12.1891 32.2917C12.1736 32.6408 12.2281 32.9895 12.3491 33.3173C12.4702 33.6451 12.6555 33.9454 12.8942 34.2007C13.1329 34.4559 13.4201 34.6609 13.7391 34.8037C14.058 34.9465 14.4023 35.0241 14.7517 35.0321C15.101 35.04 15.4484 34.9782 15.7736 34.8501C16.0987 34.722 16.395 34.5303 16.6451 34.2862C20.8194 30.3836 26.3205 28.2125 32.0351 28.2125C37.7496 28.2125 43.2507 30.3836 47.4251 34.2862C47.6751 34.5303 47.9714 34.722 48.2966 34.8501C48.6217 34.9782 48.9691 35.04 49.3185 35.0321C49.6679 35.0241 50.0121 34.9465 50.3311 34.8037C50.65 34.6609 50.9373 34.4559 51.1759 34.2007C51.4146 33.9454 51.5999 33.6451 51.721 33.3173C51.8421 32.9895 51.8965 32.6408 51.8811 32.2917C51.8656 31.9426 51.7806 31.6001 51.6311 31.2843C51.4815 30.9684 51.2704 30.6856 51.0101 30.4525C45.8691 25.6315 39.0829 22.9528 32.0351 22.9625Z" fill="#3F3F3F"/>
<path d="M57.75 21.9825C50.6728 15.668 41.5197 12.1782 32.035 12.1782C22.5503 12.1782 13.3971 15.668 6.31996 21.9825C6.05398 22.2097 5.83609 22.4878 5.6791 22.8004C5.52211 23.113 5.42919 23.4538 5.40578 23.8028C5.38238 24.1519 5.42897 24.5021 5.54283 24.8328C5.65668 25.1636 5.83549 25.4683 6.06876 25.7289C6.30203 25.9896 6.58504 26.201 6.90118 26.3508C7.21731 26.5005 7.56019 26.5856 7.90966 26.6009C8.25913 26.6163 8.60815 26.5616 8.9362 26.4402C9.26425 26.3188 9.56473 26.133 9.81996 25.8938C15.9345 20.4405 23.8413 17.4268 32.0343 17.4268C40.2274 17.4268 48.1342 20.4405 54.2487 25.8938C54.7677 26.3579 55.4498 26.5968 56.145 26.5581C56.8402 26.5193 57.4915 26.2059 57.9556 25.6869C58.4197 25.1679 58.6587 24.4858 58.6199 23.7906C58.5811 23.0954 58.2677 22.4441 57.7487 21.98L57.75 21.9825Z" fill="#3F3F3F"/>
<path d="M32.0352 53.1763C34.2443 53.1763 36.0352 51.3854 36.0352 49.1763C36.0352 46.9671 34.2443 45.1763 32.0352 45.1763C29.826 45.1763 28.0352 46.9671 28.0352 49.1763C28.0352 51.3854 29.826 53.1763 32.0352 53.1763Z" fill="#3F3F3F"/>
</svg>
