<svg xmlns="http://www.w3.org/2000/svg" width="100" height="101" fill="none" viewBox="0 0 100 101"><g clip-path="url(#clip0_162_333)"><path fill="#000" d="M99.6126 60.3809C99.013 58.62 97.4423 57.3934 95.411 57.0991C94.4532 56.9605 93.3563 57.0196 92.0583 57.279C89.7958 57.7317 88.1173 57.904 86.8923 57.9374C91.5161 50.3673 95.2759 41.7347 97.4403 33.6086C100.94 20.4688 99.07 14.4828 96.8845 11.7753C91.1005 4.60859 82.6618 0.758595 72.4813 0.640792C67.0505 0.576398 62.2829 1.61617 59.7958 2.3639C57.4802 1.96769 54.9903 1.74647 52.3778 1.70556C47.4806 1.62981 43.1536 2.66503 39.4563 4.79269C37.4095 4.12147 34.1243 3.17526 30.3306 2.57147C21.4079 1.15102 14.2165 2.25784 8.95635 5.86125C2.58682 10.2241 -0.365918 17.8044 0.180175 28.3916C0.353613 31.7529 2.29268 41.9802 5.3458 51.6794C7.10049 57.2544 8.97158 61.884 10.9071 65.4408C13.6521 70.4844 16.5892 73.4544 19.8864 74.5211C21.7345 75.1181 25.0923 75.5362 28.6239 72.684C29.0716 73.2097 29.6688 73.7321 30.4614 74.2173C31.4681 74.8328 32.6989 75.3359 33.9282 75.634C38.3583 76.7078 42.5079 76.4393 46.0481 74.934C46.07 75.5446 46.0868 76.1279 46.1009 76.6317C46.1243 77.4487 46.1478 78.2499 46.1786 78.9991C46.3884 84.065 46.7438 88.0041 47.797 90.7601C47.8548 90.9116 47.9325 91.1427 48.0145 91.3878C48.5399 92.9476 49.4185 95.559 51.6536 97.604C53.9681 99.7226 56.7677 100.372 59.3317 100.372C60.6177 100.372 61.8446 100.209 62.9208 99.9851C66.7567 99.1878 71.1134 97.9734 74.2649 93.6218C77.2446 89.5082 78.6931 83.3124 78.9552 73.5499C78.9892 73.2738 79.0204 73.0101 79.0505 72.759L79.113 72.2431L79.8149 72.3029L79.9958 72.3147C83.9028 72.4874 88.6802 71.684 91.6142 70.3624C93.9325 69.3192 101.362 65.5158 99.6126 60.3809Z"/><path fill="#336791" d="M92.932 61.3795C81.3148 63.7034 80.516 59.8894 80.516 59.8894C92.7816 42.2405 97.9094 19.8378 93.4847 14.3549C81.4129 -0.601558 60.5164 6.47193 60.1676 6.65526L60.0555 6.67496C57.7601 6.21284 55.1918 5.93784 52.3047 5.892C47.0484 5.80867 43.0609 7.22837 40.0351 9.45337C40.0351 9.45337 2.75779 -5.4383 4.49178 28.1822C4.86053 35.3344 15.0637 82.3007 27.2332 68.1147C31.6812 62.9272 35.9793 58.5412 35.9793 58.5412C38.1137 59.9162 40.6691 60.6178 43.348 60.3659L43.5562 60.1947C43.4914 60.8386 43.5211 61.4685 43.6394 62.2144C40.5043 65.6109 41.4258 66.2072 35.1586 67.4583C28.8168 68.7257 32.5422 70.9818 34.9746 71.5719C37.9234 72.2867 44.7453 73.2996 49.3547 67.0424L49.1711 67.7564C50.3992 68.7106 51.2617 73.9621 51.1172 78.7231C50.9726 83.4837 50.8762 86.7522 51.8437 89.3053C52.8121 91.8583 53.7765 97.6026 62.0156 95.8909C68.8996 94.4602 72.4672 90.753 72.9637 84.5689C73.3156 80.1727 74.1129 80.8227 74.1629 76.892L74.8023 75.0314C75.5394 69.0719 74.9195 67.1492 79.1605 68.0435L80.1918 68.1314C83.3129 68.2689 87.3988 67.6443 89.7969 66.5636C94.9601 64.2401 98.0226 60.3602 92.9312 61.3795H92.932Z"/><path fill="#fff" d="M42.2171 31.3808C41.1702 31.2395 40.2221 31.3702 39.7425 31.7225C39.4729 31.9206 39.3893 32.1501 39.3667 32.3081C39.3065 32.7266 39.6089 33.1895 39.7948 33.4281C40.3206 34.1039 41.0885 34.5683 41.8487 34.6706C41.9589 34.6857 42.0686 34.6925 42.1776 34.6925C43.4452 34.6925 44.5979 33.7353 44.6995 33.0289C44.8264 32.1441 43.5018 31.5539 42.2171 31.3808ZM76.8983 31.4088C76.7983 30.7153 75.5257 30.5175 74.3178 30.6804C73.1116 30.8433 71.9421 31.3713 72.0397 32.0664C72.1178 32.6069 73.1245 33.5297 74.3159 33.5297C74.4167 33.5297 74.5182 33.5232 74.6206 33.5092C75.4159 33.4024 75.9995 32.9126 76.2768 32.6304C76.6987 32.2001 76.9432 31.7206 76.8983 31.4088Z"/><path fill="#fff" d="M96.7976 61.1155C96.3547 59.8166 94.9289 59.3988 92.5601 59.8731C85.5269 61.2806 83.0082 60.3056 82.1812 59.7151C87.648 51.6393 92.1453 41.8772 94.5715 32.7693C95.7207 28.4549 96.3554 24.4481 96.4074 21.1821C96.4648 17.5977 95.8351 14.9636 94.5367 13.3545C89.3015 6.86775 81.6179 3.38821 72.3172 3.29275C65.923 3.22306 60.5207 4.8098 59.4734 5.25601C57.2679 4.72419 54.8636 4.39768 52.2461 4.35601C47.4461 4.28063 43.2968 5.39503 39.8617 7.66662C38.3695 7.12798 34.5133 5.84427 29.7972 5.10753C21.6441 3.8348 15.1652 4.79919 10.5418 7.97533C5.02498 11.7655 2.4781 18.5405 2.97146 28.1117C3.13748 31.3318 5.02966 41.2378 8.0156 50.7246C11.9461 63.2109 16.2187 70.2795 20.714 71.7337C21.2402 71.9037 21.8469 72.0227 22.516 72.0227C24.1558 72.0227 26.1664 71.306 28.2582 68.8674C30.8096 65.8994 33.4488 63.0035 36.1726 60.1833C37.9398 61.103 39.8812 61.6166 41.8668 61.6681C41.8707 61.7185 41.8758 61.7689 41.8804 61.8189C41.5387 62.2141 41.204 62.6151 40.8765 63.0215C39.5008 64.7151 39.2144 65.0678 34.7859 65.9518C33.5261 66.2041 30.1804 66.8727 30.1312 69.1469C30.0781 71.6318 34.0863 72.6753 34.5429 72.7859C36.1343 73.1723 37.6676 73.3628 39.1297 73.3628C42.6855 73.3628 45.8148 72.2295 48.3156 70.0367C48.2387 78.895 48.6195 87.6238 49.7164 90.2833C50.6148 92.4606 52.8094 97.7814 59.7414 97.781C60.7586 97.781 61.8781 97.6662 63.1097 97.4102C70.3445 95.9064 73.4863 92.8056 74.7015 85.9696C75.3519 82.3162 76.4679 73.5924 76.993 68.9128C78.1008 69.2481 79.5269 69.4015 81.0687 69.4011C84.2843 69.4011 87.9949 68.7386 90.3219 67.6912C92.9359 66.514 97.6531 63.6253 96.7976 61.1155ZM79.5687 29.4943C79.5449 30.8757 79.3488 32.1299 79.141 33.439C78.9172 34.8469 78.6859 36.3026 78.6277 38.0696C78.5703 39.7893 78.7918 41.5772 79.0058 43.3064C79.4387 46.7988 79.8828 50.3943 78.1637 53.942C77.8781 53.4513 77.6237 52.9442 77.4019 52.4234C77.1883 51.9212 76.7242 51.1143 76.0816 49.9977C73.582 45.6507 67.7285 35.4712 70.725 31.3174C71.6176 30.081 73.8828 28.8098 79.5687 29.4943ZM72.6765 6.0901C81.0101 6.26851 87.6023 9.29162 92.2695 15.075C95.8492 19.5109 91.9074 39.6954 80.4961 57.1087C80.3813 56.9672 80.2659 56.8261 80.15 56.6856L80.0054 56.5106C82.9543 51.7882 82.3777 47.1159 81.8644 42.9734C81.6535 41.2734 81.4543 39.6678 81.5051 38.1594C81.5574 36.5609 81.7754 35.1897 81.9863 33.864C82.2453 32.2303 82.509 30.5397 82.4363 28.5469C82.4906 28.3378 82.5125 28.0909 82.484 27.7977C82.2984 25.8867 80.0484 20.1674 75.4625 14.9909C72.9539 12.1594 69.2957 8.99086 64.3008 6.85374C66.4492 6.42192 69.3871 6.01927 72.6765 6.0901ZM26.0445 67.0825C23.7398 69.7696 22.1484 69.2545 21.625 69.0856C18.2148 67.9825 14.2578 60.9931 10.7691 49.9098C7.75037 40.3196 5.9863 30.6761 5.84646 27.9719C5.40584 19.4196 7.54373 13.4594 12.2011 10.2564C19.7808 5.04427 32.2426 8.16397 37.25 9.74616C37.1781 9.8151 37.1031 9.8795 37.032 9.94957C28.8148 17.9965 29.0097 31.745 29.0301 32.5856C29.0293 32.9098 29.0574 33.3689 29.0957 34.0003C29.2371 36.3128 29.5004 40.6166 28.7972 45.4905C28.1441 50.0196 29.584 54.4526 32.7469 57.653C33.0715 57.9808 33.4126 58.2928 33.7691 58.5878C32.3613 60.0499 29.3015 63.2833 26.0445 67.0825ZM34.8254 55.7215C32.2761 53.142 31.1183 49.5541 31.6484 45.8768C32.3906 40.7284 32.1168 36.2443 31.9695 33.8352C31.9488 33.4981 31.9304 33.2026 31.9199 32.9696C33.1203 31.9374 38.6832 29.0473 42.6504 29.9287C44.4605 30.3306 45.5636 31.5261 46.0222 33.5821C48.3957 44.2272 46.3363 48.664 44.6816 52.2295C44.3406 52.964 44.0183 53.6583 43.7433 54.3765L43.5301 54.9318C42.9902 56.3356 42.4879 57.6409 42.1765 58.8802C39.4664 58.8727 36.8301 57.7499 34.8254 55.7212V55.7215ZM35.2414 70.0776C34.45 69.8859 33.7383 69.553 33.3207 69.2768C33.6695 69.1178 34.2902 68.9011 35.3668 68.6859C40.5765 67.6462 41.3812 66.9121 43.1383 64.7488C43.541 64.2526 43.9976 63.6905 44.6301 63.0056L44.6308 63.0049C45.5726 61.9821 46.0035 62.1556 46.7847 62.47C47.4179 62.7238 48.0347 63.4935 48.2847 64.3405C48.4031 64.7405 48.5359 65.4996 48.1011 66.0905C44.4308 71.0738 39.0824 71.0098 35.2414 70.0776ZM62.5066 94.6806C56.1332 96.0049 53.8765 92.8515 52.3894 89.2465C51.4297 86.9193 50.9578 76.4246 51.2926 64.8348C51.2969 64.6806 51.2742 64.5318 51.2304 64.3916C51.1913 64.1149 51.1318 63.8412 51.0523 63.5727C50.5547 61.8863 49.3418 60.4757 47.8867 59.8909C47.3086 59.6587 46.2476 59.2325 44.9726 59.5488C45.2445 58.4625 45.716 57.2356 46.2273 55.9071L46.4418 55.3484C46.6832 54.7185 46.9863 54.0659 47.3066 53.3749C49.0383 49.6446 51.4097 44.5352 48.8359 32.9924C47.8718 28.6689 44.6523 26.5575 39.7719 27.0481C36.8461 27.3416 34.1691 28.4863 32.834 29.1427C32.5469 29.2837 32.2843 29.42 32.039 29.5526C32.4117 25.1965 33.8195 17.0556 39.0859 11.9049C42.4019 8.66245 46.8179 7.06094 52.1984 7.1473C62.8 7.31548 69.5984 12.5912 73.4351 16.9878C76.7414 20.7761 78.5316 24.5924 79.2461 26.6507C73.873 26.1208 70.2187 27.1492 68.3664 29.7174C64.3363 35.3037 70.5711 46.1462 73.5676 51.3571C74.1172 52.3121 74.5914 53.1375 74.7406 53.4882C75.7164 55.7814 76.9797 57.3124 77.9019 58.4299C78.1847 58.7723 78.459 59.1045 78.6676 59.3946C77.0402 59.8496 74.1172 60.9007 74.3836 66.1549C74.1687 68.7912 72.641 81.1344 71.8648 85.4954C70.8402 91.2568 68.6539 93.4026 62.5066 94.681V94.6806ZM89.1097 65.1594C87.4457 65.9083 84.6609 66.47 82.0156 66.5909C79.0937 66.7234 77.6062 66.2734 77.2562 65.9965C77.0922 62.7223 78.3488 62.3803 79.6789 62.0181C79.8879 61.9613 80.0918 61.9056 80.2887 61.839C80.4109 61.9356 80.5449 62.0314 80.6918 62.1253C83.0402 63.6284 87.2289 63.7905 93.1426 62.6068L93.2074 62.5943C92.4097 63.3174 91.0449 64.2878 89.1097 65.1594Z"/></g><defs><clipPath id="clip0_162_333"><rect width="100" height="100" fill="#fff" transform="translate(0 0.5)"/></clipPath></defs></svg>