<svg width="72" height="72" viewBox="0 0 72 72" fill="none" xmlns="http://www.w3.org/2000/svg">
<path d="M32.9999 18H41.9999L51.8699 8.09998C52.1488 7.8188 52.4806 7.59561 52.8462 7.44331C53.2118 7.291 53.6039 7.21259 53.9999 7.21259C54.396 7.21259 54.7881 7.291 55.1537 7.44331C55.5193 7.59561 55.8511 7.8188 56.1299 8.09998L63.8699 15.87C64.4287 16.4321 64.7423 17.1924 64.7423 17.985C64.7423 18.7775 64.4287 19.5379 63.8699 20.1L56.9999 27H32.9999V33C32.9999 33.7956 32.6839 34.5587 32.1213 35.1213C31.5587 35.6839 30.7956 36 29.9999 36C29.2043 36 28.4412 35.6839 27.8786 35.1213C27.316 34.5587 26.9999 33.7956 26.9999 33V24C26.9999 22.4087 27.6321 20.8826 28.7573 19.7573C29.8825 18.6321 31.4086 18 32.9999 18ZM14.9999 33V45L8.12995 51.87C7.57119 52.4321 7.25757 53.1924 7.25757 53.985C7.25757 54.7775 7.57119 55.5379 8.12995 56.1L15.8699 63.87C16.1488 64.1512 16.4806 64.3744 16.8462 64.5267C17.2118 64.679 17.6039 64.7574 17.9999 64.7574C18.396 64.7574 18.7881 64.679 19.1537 64.5267C19.5193 64.3744 19.8511 64.1512 20.1299 63.87L32.9999 51H44.9999C45.7956 51 46.5587 50.6839 47.1213 50.1213C47.6839 49.5587 47.9999 48.7956 47.9999 48V45H50.9999C51.7956 45 52.5587 44.6839 53.1213 44.1213C53.6839 43.5587 53.9999 42.7956 53.9999 42V39H56.9999C57.7956 39 58.5587 38.6839 59.1213 38.1213C59.6839 37.5587 59.9999 36.7956 59.9999 36V33H38.9999V36C38.9999 37.5913 38.3678 39.1174 37.2426 40.2426C36.1174 41.3678 34.5912 42 32.9999 42H26.9999C25.4086 42 23.8825 41.3678 22.7573 40.2426C21.6321 39.1174 20.9999 37.5913 20.9999 36V27L14.9999 33Z" fill="white"/>
</svg>
