<svg width="64" height="64" viewBox="0 0 64 64" fill="none" xmlns="http://www.w3.org/2000/svg">
<path d="M56 29.3333C56 44.1333 45.76 57.9733 32 61.3333C18.24 57.9733 8 44.1333 8 29.3333V13.3333L32 2.66666L56 13.3333V29.3333ZM32 56C42 53.3333 50.6667 41.44 50.6667 29.92V16.8L32 8.47999L13.3333 16.8V29.92C13.3333 41.44 22 53.3333 32 56ZM39.4667 29.3333V25.3333C39.4667 21.6 35.7333 18.6667 32 18.6667C28.2667 18.6667 24.5333 21.6 24.5333 25.3333V29.3333C22.9333 29.3333 21.3333 30.9333 21.3333 32.5333V41.8667C21.3333 43.7333 22.9333 45.3333 24.5333 45.3333H39.2C41.0667 45.3333 42.6667 43.7333 42.6667 42.1333V32.8C42.6667 30.9333 41.0667 29.3333 39.4667 29.3333ZM36 29.3333H28V25.3333C28 23.2 29.8667 21.8667 32 21.8667C34.1333 21.8667 36 23.2 36 25.3333V29.3333Z" fill="#3F3F3F"/>
</svg>
