<svg xmlns="http://www.w3.org/2000/svg" width="60" height="60" fill="none" viewBox="0 0 60 60"><g id="mdi:storage"><path id="Vector" fill="#1E1E1E" fill-opacity=".85" d="M30 7.5C18.95 7.5 10 11.975 10 17.5C10 23.025 18.95 27.5 30 27.5C41.05 27.5 50 23.025 50 17.5C50 11.975 41.05 7.5 30 7.5ZM10 22.5V30C10 35.525 18.95 40 30 40C41.05 40 50 35.525 50 30V22.5C50 28.025 41.05 32.5 30 32.5C18.95 32.5 10 28.025 10 22.5ZM10 35V42.5C10 48.025 18.95 52.5 30 52.5C41.05 52.5 50 48.025 50 42.5V35C50 40.525 41.05 45 30 45C18.95 45 10 40.525 10 35Z"/></g></svg>