<svg width="64" height="64" viewBox="0 0 64 64" fill="none" xmlns="http://www.w3.org/2000/svg">
<path d="M49.9202 39.36C50.8535 37.0933 51.3602 34.6667 51.3602 32C51.3602 30.08 51.0668 28.24 50.5602 26.5333C48.8268 26.9333 47.0135 27.1467 45.1202 27.1467C41.2427 27.1508 37.4212 26.2227 33.9776 24.4406C30.534 22.6585 27.5693 20.0745 25.3335 16.9067C22.9418 22.6938 18.4298 27.3488 12.7202 29.92C12.6135 30.5867 12.6135 31.3067 12.6135 32C12.6135 34.5459 13.1149 37.0668 14.0892 39.4189C15.0635 41.771 16.4915 43.9082 18.2917 45.7084C21.9274 49.3441 26.8585 51.3867 32.0002 51.3867C34.8002 51.3867 37.4935 50.7733 39.9202 49.68C41.4402 52.5867 42.1335 54.0267 42.0802 54.0267C37.7068 55.4933 34.3202 56.2133 32.0002 56.2133C25.5468 56.2133 19.3868 53.68 14.8535 49.12C12.0962 46.3711 10.0465 42.9947 8.88016 39.28H5.3335V27.1467H8.24016C9.12081 22.86 11.1455 18.8917 14.0993 15.6629C17.0532 12.4341 20.826 10.0651 25.0176 8.80735C29.2091 7.54962 33.6629 7.45005 37.9065 8.51921C42.15 9.58837 46.025 11.7864 49.1202 14.88C52.4808 18.2273 54.773 22.4963 55.7068 27.1467H58.6668V39.28H58.5068L49.0135 48L34.8802 46.4V41.9467H47.7602L49.9202 39.36ZM24.7202 31.3867C25.5202 31.3867 26.2935 31.7067 26.8535 32.2933C27.4163 32.8607 27.7321 33.6275 27.7321 34.4267C27.7321 35.2258 27.4163 35.9926 26.8535 36.56C26.2935 37.12 25.5202 37.44 24.7202 37.44C23.0402 37.44 21.6802 36.1067 21.6802 34.4267C21.6802 32.7467 23.0402 31.3867 24.7202 31.3867ZM39.2535 31.3867C40.9335 31.3867 42.2668 32.7467 42.2668 34.4267C42.2668 36.1067 40.9335 37.44 39.2535 37.44C37.5735 37.44 36.2135 36.1067 36.2135 34.4267C36.2135 33.6204 36.5338 32.8472 37.1039 32.277C37.674 31.7069 38.4472 31.3867 39.2535 31.3867Z" fill="#3F3F3F"/>
</svg>
