<svg width="64" height="64" viewBox="0 0 64 64" fill="none" xmlns="http://www.w3.org/2000/svg">
<path d="M53.3333 10.6667C54.7478 10.6667 56.1044 11.2286 57.1046 12.2288C58.1048 13.2289 58.6667 14.5855 58.6667 16V42.6667C58.6667 45.6267 56.2933 48 53.3333 48H64V53.3333H0V48H10.6667C9.25218 48 7.89562 47.4381 6.89543 46.4379C5.89524 45.4377 5.33333 44.0811 5.33333 42.6667V16C5.33333 13.04 7.70667 10.6667 10.6667 10.6667H53.3333ZM53.3333 16H10.6667V42.6667H53.3333V16ZM32 32C37.8933 32 42.6667 34.4 42.6667 37.3333V40H21.3333V37.3333C21.3333 34.4 26.1067 32 32 32ZM32 18.6667C33.4145 18.6667 34.771 19.2286 35.7712 20.2288C36.7714 21.2289 37.3333 22.5855 37.3333 24C37.3333 25.4145 36.7714 26.771 35.7712 27.7712C34.771 28.7714 33.4145 29.3333 32 29.3333C29.04 29.3333 26.6667 26.96 26.6667 24C26.6667 21.04 29.0667 18.6667 32 18.6667Z" fill="#444444"/>
</svg>
