<svg width="48" height="52" viewBox="0 0 48 52" fill="none" xmlns="http://www.w3.org/2000/svg">
<g id="mi:switch">
<path id="Vector" d="M28.586 5.36119C28.9611 4.96375 29.4697 4.74048 30 4.74048C30.5303 4.74048 31.0389 4.96375 31.414 5.36119L39.414 13.8412C39.7889 14.2387 39.9996 14.7779 39.9996 15.34C39.9996 15.9022 39.7889 16.4413 39.414 16.8389L31.414 25.3189C31.0368 25.705 30.5316 25.9187 30.0072 25.9139C29.4828 25.9091 28.9812 25.6861 28.6104 25.293C28.2395 24.9 28.0292 24.3683 28.0247 23.8124C28.0201 23.2565 28.2217 22.721 28.586 22.3212L33.172 17.46H10C9.46957 17.46 8.96086 17.2367 8.58579 16.8391C8.21071 16.4415 8 15.9023 8 15.34C8 14.7778 8.21071 14.2385 8.58579 13.841C8.96086 13.4434 9.46957 13.22 10 13.22H33.172L28.586 8.35887C28.2111 7.96131 28.0004 7.42217 28.0004 6.86003C28.0004 6.29788 28.2111 5.75874 28.586 5.36119ZM19.414 26.5612C19.7889 26.9587 19.9996 27.4979 19.9996 28.06C19.9996 28.6222 19.7889 29.1613 19.414 29.5589L14.828 34.42H38C38.5304 34.42 39.0391 34.6434 39.4142 35.041C39.7893 35.4385 40 35.9778 40 36.54C40 37.1023 39.7893 37.6415 39.4142 38.0391C39.0391 38.4367 38.5304 38.66 38 38.66H14.828L19.414 43.5212C19.7783 43.921 19.9799 44.4565 19.9753 45.0124C19.9708 45.5683 19.7605 46.1 19.3896 46.493C19.0188 46.8861 18.5172 47.1091 17.9928 47.1139C17.4684 47.1187 16.9632 46.905 16.586 46.5189L8.586 38.0389C8.21106 37.6413 8.00043 37.1022 8.00043 36.54C8.00043 35.9779 8.21106 35.4387 8.586 35.0412L16.586 26.5612C16.9611 26.1637 17.4697 25.9405 18 25.9405C18.5303 25.9405 19.0389 26.1637 19.414 26.5612Z" fill="#1E1E1E" fill-opacity="0.85"/>
</g>
</svg>
