<svg width="64" height="64" viewBox="0 0 64 64" fill="none" xmlns="http://www.w3.org/2000/svg">
<g clip-path="url(#clip0_256_53)">
<path fill-rule="evenodd" clip-rule="evenodd" d="M33.5202 4.41199C33.0595 4.14119 32.5347 3.99841 32.0002 3.99841C31.4658 3.99841 30.941 4.14119 30.4802 4.41199L1.48024 21.412C1.02888 21.6766 0.65458 22.0547 0.394488 22.5087C0.134396 22.9627 -0.00244141 23.4768 -0.00244141 24C-0.00244141 24.5232 0.134396 25.0373 0.394488 25.4913C0.65458 25.9453 1.02888 26.3234 1.48024 26.588L30.4802 43.588C30.941 43.8588 31.4658 44.0016 32.0002 44.0016C32.5347 44.0016 33.0595 43.8588 33.5202 43.588L62.5202 26.588C62.9716 26.3234 63.3459 25.9453 63.606 25.4913C63.8661 25.0373 64.0029 24.5232 64.0029 24C64.0029 23.4768 63.8661 22.9627 63.606 22.5087C63.3459 22.0547 62.9716 21.6766 62.5202 21.412L33.5202 4.41199ZM32.0002 37.524L8.93224 24L32.0002 10.48L55.0682 24L32.0002 37.524ZM4.52024 37.412C3.83386 37.0089 3.01545 36.8949 2.24505 37.0952C1.47465 37.2955 0.815369 37.7936 0.41224 38.48C0.0091109 39.1664 -0.104844 39.9848 0.0954453 40.7552C0.295734 41.5256 0.79386 42.1849 1.48024 42.588L30.4802 59.588C30.941 59.8588 31.4658 60.0016 32.0002 60.0016C32.5347 60.0016 33.0595 59.8588 33.5202 59.588L62.5202 42.588C62.8601 42.3884 63.1573 42.1238 63.3949 41.8093C63.6325 41.4948 63.8059 41.1366 63.905 40.7552C64.0042 40.3737 64.0273 39.9765 63.9729 39.5861C63.9186 39.1957 63.7879 38.8198 63.5882 38.48C63.3886 38.1401 63.124 37.8429 62.8096 37.6053C62.4951 37.3677 62.1369 37.1944 61.7554 37.0952C61.374 36.996 60.9767 36.973 60.5863 37.0273C60.1959 37.0817 59.8201 37.2124 59.4802 37.412L32.0002 53.524L4.52024 37.412Z" fill="#3F3F3F"/>
</g>
<defs>
<clipPath id="clip0_256_53">
<rect width="64" height="64" fill="white"/>
</clipPath>
</defs>
</svg>
