<svg xmlns="http://www.w3.org/2000/svg" width="100" height="101" fill="none" viewBox="0 0 100 101"><g clip-path="url(#clip0_162_350)"><path fill="#0073AA" d="M76.5625 0.5H23.4375C10.4933 0.5 0 10.9933 0 23.9375V77.0625C0 90.0067 10.4933 100.5 23.4375 100.5H76.5625C89.5067 100.5 100 90.0067 100 77.0625V23.9375C100 10.9933 89.5067 0.5 76.5625 0.5Z"/><path fill="#fff" d="M16.4898 50.4976C16.4898 63.7612 24.198 75.2237 35.3753 80.6558L19.3909 36.8605C17.4748 41.1513 16.4862 45.7983 16.4898 50.4976ZM72.6202 48.8065C72.6202 44.6655 71.1327 41.7976 69.8569 39.5651C68.1581 36.805 66.5659 34.4675 66.5659 31.7073C66.5659 28.6269 68.9023 25.7597 72.1929 25.7597C72.3417 25.7597 72.4823 25.778 72.6273 25.7862C66.6655 20.3245 58.723 16.9897 49.9987 16.9897C38.2925 16.9897 27.9929 22.996 22.0015 32.0937C22.7874 32.1171 23.5284 32.1339 24.1577 32.1339C27.6628 32.1339 33.0882 31.7081 33.0882 31.7081C34.8944 31.6019 35.1077 34.255 33.303 34.4687C33.303 34.4687 31.4878 34.6823 29.4679 34.7882L41.6702 71.0843L49.0034 49.0909L43.7827 34.787C41.9784 34.6812 40.2691 34.4675 40.2691 34.4675C38.4632 34.3616 38.6749 31.6007 40.4808 31.7073C40.4808 31.7073 46.0144 32.1323 49.3069 32.1323C52.8116 32.1323 58.2374 31.7073 58.2374 31.7073C60.0452 31.6007 60.2573 34.2538 58.4523 34.4675C58.4523 34.4675 56.6331 34.6812 54.6171 34.787L66.7269 70.8081L70.0691 59.6394C71.5179 55.0042 72.6202 51.6753 72.6202 48.8065Z"/><path fill="#fff" d="M50.5871 53.429L40.5332 82.6438C43.607 83.5492 46.7948 84.0089 49.9992 84.009C53.7891 84.0104 57.5518 83.3681 61.1266 82.1094C61.0336 81.9629 60.9538 81.8084 60.8883 81.6477L50.5871 53.429ZM79.402 34.4211C79.5544 35.5632 79.6298 36.7143 79.6277 37.8665C79.6277 41.2668 78.9926 45.0895 77.0797 49.8692L66.8441 79.4625C76.8063 73.6532 83.507 62.8606 83.507 50.4985C83.5074 44.6723 82.0195 39.1938 79.402 34.4211Z"/><path fill="#fff" d="M49.9992 11.4375C28.4609 11.4375 10.9375 28.9598 10.9375 50.4977C10.9375 72.0383 28.4609 89.5598 49.9992 89.5598C71.5363 89.5598 89.0625 72.0383 89.0625 50.4977C89.0617 28.9598 71.5363 11.4375 49.9992 11.4375ZM49.9992 87.7695C29.4484 87.7695 12.7285 71.0492 12.7285 50.4977C12.7285 29.9473 29.448 13.2285 49.9992 13.2285C70.5488 13.2285 87.2676 29.9473 87.2676 50.4977C87.2676 71.0492 70.5488 87.7695 49.9992 87.7695Z"/></g><defs><clipPath id="clip0_162_350"><rect width="100" height="100" fill="#fff" transform="translate(0 0.5)"/></clipPath></defs></svg>