<svg width="100" height="101" viewBox="0 0 100 101" fill="none" xmlns="http://www.w3.org/2000/svg">
<g clip-path="url(#clip0_162_346)">
<path d="M76.5625 0.5H23.4375C10.4933 0.5 0 10.9933 0 23.9375V77.0625C0 90.0067 10.4933 100.5 23.4375 100.5H76.5625C89.5067 100.5 100 90.0067 100 77.0625V23.9375C100 10.9933 89.5067 0.5 76.5625 0.5Z" fill="#F0DB4F"/>
<path d="M26.2938 84.0672L33.9462 79.436C35.4228 82.0536 36.7657 84.2684 39.9872 84.2684C43.0751 84.2684 45.022 83.0606 45.022 78.3622V46.4098H54.4196V78.495C54.4196 88.2282 48.7142 92.6586 40.3899 92.6586C32.8724 92.6586 28.5087 88.7653 26.2935 84.0665M59.5239 83.0602L67.1755 78.6301C69.1899 81.9196 71.8079 84.336 76.4392 84.336C80.3333 84.336 82.8161 82.3891 82.8161 79.704C82.8161 76.4821 80.2653 75.3407 75.9692 73.4618L73.6204 72.4543C66.8403 69.5684 62.3427 65.9434 62.3427 58.2911C62.3427 51.2426 67.713 45.8723 76.104 45.8723C82.0782 45.8723 86.3743 47.9536 89.4618 53.3907L82.145 58.0895C80.5337 55.2032 78.7892 54.0622 76.104 54.0622C73.3517 54.0622 71.6063 55.8075 71.6063 58.0895C71.6063 60.9086 73.3517 62.0501 77.379 63.7958L79.7282 64.8024C87.7161 68.2262 92.2138 71.7161 92.2138 79.5696C92.2138 88.0282 85.5685 92.6594 76.6407 92.6594C67.9146 92.6594 62.2759 88.4977 59.5239 83.0602Z" fill="#323330"/>
</g>
<defs>
<clipPath id="clip0_162_346">
<rect width="100" height="100" fill="white" transform="translate(0 0.5)"/>
</clipPath>
</defs>
</svg>
