<svg width="100" height="101" viewBox="0 0 100 101" fill="none" xmlns="http://www.w3.org/2000/svg">
<path d="M18.125 77.375L18.6562 76.6344L43.7188 29.0906L43.7719 28.5875L32.725 7.8375C32.5228 7.45805 32.2063 7.1518 31.8205 6.96207C31.4346 6.77235 30.9989 6.70875 30.5749 6.78028C30.1509 6.8518 29.7601 7.05484 29.4579 7.36065C29.1556 7.66647 28.9572 8.05958 28.8906 8.48437L18.125 77.375Z" fill="#FFC24A"/>
<path d="M18.4375 76.8126L18.8375 76.0313L43.6406 28.9813L32.6219 8.15008C32.4402 7.78781 32.146 7.49417 31.7834 7.31315C31.4207 7.13212 31.0092 7.07347 30.6105 7.14597C30.2117 7.21847 29.8472 7.41822 29.5715 7.7153C29.2958 8.01238 29.1238 8.39078 29.0812 8.79383L18.4375 76.8126Z" fill="#FFA712"/>
<path d="M51.825 44.2812L60.05 35.8437L51.8219 20.153C51.6408 19.8154 51.3715 19.5331 51.0427 19.3363C50.7139 19.1396 50.3379 19.0356 49.9547 19.0356C49.5716 19.0356 49.1955 19.1396 48.8667 19.3363C48.5379 19.5331 48.2686 19.8154 48.0875 20.153L43.6907 28.5343V29.2499L51.825 44.2812Z" fill="#F4BD62"/>
<path d="M51.6782 43.9376L59.6751 35.7501L51.6782 20.5001C51.5473 20.17 51.3238 19.8848 51.0344 19.6789C50.7451 19.473 50.4024 19.3552 50.0477 19.3397C49.6929 19.3241 49.3412 19.4116 49.035 19.5914C48.7288 19.7712 48.4812 20.0358 48.322 20.3532L43.9032 28.8813L43.772 29.3157L51.6782 43.9376Z" fill="#FFA50E"/>
<path d="M18.1313 77.3782L18.372 77.1344L19.2438 76.7813L51.3063 44.8375L51.7126 43.7313L43.7157 28.4875L18.1313 77.3782Z" fill="#F6820C"/>
<path d="M52.85 93.4875L81.875 77.3031L73.5812 26.2688C73.5218 25.909 73.3644 25.5726 73.1263 25.2964C72.8881 25.0203 72.5785 24.8151 72.2314 24.7033C71.8843 24.5916 71.5131 24.5777 71.1586 24.6631C70.8041 24.7485 70.48 24.93 70.2219 25.1875L18.125 77.375L46.9781 93.4844C47.8751 93.9849 48.8853 94.2477 49.9125 94.2477C50.9397 94.2477 51.9499 93.9849 52.8469 93.4844" fill="#FDE068"/>
<path d="M81.6094 77.1688L73.3844 26.5188C73.3699 26.1747 73.2536 25.8426 73.0503 25.5646C72.8469 25.2866 72.5657 25.0752 72.2422 24.9571C71.9187 24.839 71.5674 24.8195 71.2328 24.9012C70.8982 24.9828 70.5953 25.1618 70.3625 25.4157L18.4375 77.2782L46.9719 93.2157C47.8618 93.7121 48.8638 93.9727 49.8828 93.9727C50.9018 93.9727 51.9039 93.7121 52.7937 93.2157L81.6094 77.1688Z" fill="#FCCA3F"/>
<path d="M52.85 93.0001C51.953 93.5006 50.9428 93.7634 49.9156 93.7634C48.8884 93.7634 47.8783 93.5006 46.9813 93.0001L18.3625 77.1313L18.125 77.3751L46.9781 93.4845C47.8751 93.985 48.8853 94.2478 49.9125 94.2478C50.9397 94.2478 51.9499 93.985 52.8469 93.4845L81.875 77.3032L81.8031 76.8657L52.85 93.0001Z" fill="#EEAB37"/>
</svg>
